<mxfile host="app.diagrams.net" agent="Mozilla/5.0 (Windows NT 10.0; Win64; x64) AppleWebKit/537.36 (KHTML, like Gecko) Chrome/136.0.0.0 Safari/537.36" version="27.1.1">
  <diagram name="Page-1" id="sqgKExxTLfJr2XsGwPO1">
    <mxGraphModel dx="401" dy="476" grid="1" gridSize="10" guides="1" tooltips="1" connect="1" arrows="1" fold="1" page="1" pageScale="1" pageWidth="850" pageHeight="1100" math="0" shadow="0">
      <root>
        <mxCell id="0" />
        <mxCell id="1" parent="0" />
        <mxCell id="17X11IMV8Jw-dfUq7L3R-15" value="" style="rounded=0;whiteSpace=wrap;html=1;fillColor=none;dashed=1;" vertex="1" parent="1">
          <mxGeometry x="2660" y="2180" width="1080" height="1030" as="geometry" />
        </mxCell>
        <object placeholders="1" c4Name="SMS notification system" c4Type="Software System" c4Description="Sends SMS alerts to users whenever the system needs to notify them about important events." label="&lt;font style=&quot;font-size: 16px&quot;&gt;&lt;b&gt;%c4Name%&lt;/b&gt;&lt;/font&gt;&lt;div&gt;[%c4Type%]&lt;/div&gt;&lt;br&gt;&lt;div&gt;&lt;font style=&quot;font-size: 11px&quot;&gt;&lt;font color=&quot;#cccccc&quot;&gt;%c4Description%&lt;/font&gt;&lt;/div&gt;" id="drQIs82g9xxdgHSHIDGh-26">
          <mxCell style="rounded=1;whiteSpace=wrap;html=1;labelBackgroundColor=none;fillColor=#a20025;fontColor=#ffffff;align=center;arcSize=10;strokeColor=#6F0000;metaEdit=1;resizable=0;points=[[0.25,0,0],[0.5,0,0],[0.75,0,0],[1,0.25,0],[1,0.5,0],[1,0.75,0],[0.75,1,0],[0.5,1,0],[0.25,1,0],[0,0.75,0],[0,0.5,0],[0,0.25,0]];" parent="1" vertex="1">
            <mxGeometry x="3850" y="2420" width="240" height="120" as="geometry" />
          </mxCell>
        </object>
        <mxCell id="OG8gn5iMKxCEzLJPPmox-15" style="edgeStyle=orthogonalEdgeStyle;rounded=0;orthogonalLoop=1;jettySize=auto;html=1;exitX=0.5;exitY=0;exitDx=0;exitDy=0;exitPerimeter=0;entryX=0.5;entryY=0;entryDx=0;entryDy=0;entryPerimeter=0;" parent="1" edge="1">
          <mxGeometry relative="1" as="geometry">
            <mxPoint x="3120" y="1960" as="sourcePoint" />
            <mxPoint x="3120" y="1960" as="targetPoint" />
          </mxGeometry>
        </mxCell>
        <mxCell id="XHwyafxk4laVPuKczVM2-3" value="&lt;div&gt;&lt;b&gt;&lt;font style=&quot;font-size: 16px;&quot;&gt;&lt;br&gt;&lt;/font&gt;&lt;/b&gt;&lt;/div&gt;&lt;font style=&quot;&quot;&gt;&lt;div style=&quot;font-size: 16px; font-weight: bold;&quot;&gt;&lt;b&gt;&lt;font style=&quot;font-size: 16px;&quot;&gt;&lt;br&gt;&lt;/font&gt;&lt;/b&gt;&lt;/div&gt;&lt;span style=&quot;font-size: 16px;&quot;&gt;&lt;b&gt;Accounts Database&lt;/b&gt;&lt;/span&gt;&lt;br&gt;&lt;/font&gt;&lt;div&gt;[Container: Azure SQL Database]&lt;/div&gt;&lt;div&gt;&lt;br&gt;&lt;/div&gt;&lt;div&gt;&lt;span style=&quot;font-size: 11px;&quot;&gt;Stores user registration information, authentication credentials, and user profile data.&lt;/span&gt;&lt;/div&gt;" style="strokeWidth=2;html=1;shape=mxgraph.flowchart.database;whiteSpace=wrap;fillColor=#a20025;fontColor=#ffffff;strokeColor=#6F0000;spacing=1;" parent="1" vertex="1">
          <mxGeometry x="3870" y="2870" width="200" height="130" as="geometry" />
        </mxCell>
        <object placeholders="1" c4Name="UserController" c4Type="Component: .NET REST Controller" c4Description="Handles user registration, sign-in, and user management requests." label="&lt;font style=&quot;font-size: 16px&quot;&gt;&lt;b&gt;%c4Name%&lt;/b&gt;&lt;/font&gt;&lt;div&gt;[%c4Type%]&lt;/div&gt;&lt;br&gt;&lt;div&gt;&lt;font style=&quot;font-size: 11px&quot;&gt;&lt;font color=&quot;#cccccc&quot;&gt;%c4Description%&lt;/font&gt;&lt;/div&gt;" id="XHwyafxk4laVPuKczVM2-5">
          <mxCell style="rounded=1;whiteSpace=wrap;html=1;labelBackgroundColor=none;fillColor=#1061B0;fontColor=#ffffff;align=center;arcSize=0;strokeColor=#0D5091;metaEdit=1;resizable=0;points=[[0.25,0,0],[0.5,0,0],[0.75,0,0],[1,0.25,0],[1,0.5,0],[1,0.75,0],[0.75,1,0],[0.5,1,0],[0.25,1,0],[0,0.75,0],[0,0.5,0],[0,0.25,0]];imageWidth=200;" parent="1" vertex="1">
            <mxGeometry x="2720" y="2875" width="240" height="120" as="geometry" />
          </mxCell>
        </object>
        <object placeholders="1" c4Name="SensorDataController" c4Type="Component: .NET REST Controller" c4Description="Receives sensor data via HTTP/API from the IoT Device Gateway." label="&lt;font style=&quot;font-size: 16px&quot;&gt;&lt;b&gt;%c4Name%&lt;/b&gt;&lt;/font&gt;&lt;div&gt;[%c4Type%]&lt;/div&gt;&lt;br&gt;&lt;div&gt;&lt;font style=&quot;font-size: 11px&quot;&gt;&lt;font color=&quot;#cccccc&quot;&gt;%c4Description%&lt;/font&gt;&lt;/div&gt;" id="XHwyafxk4laVPuKczVM2-8">
          <mxCell style="rounded=1;whiteSpace=wrap;html=1;labelBackgroundColor=none;fillColor=#1061B0;fontColor=#ffffff;align=center;arcSize=0;strokeColor=#0D5091;metaEdit=1;resizable=0;points=[[0.25,0,0],[0.5,0,0],[0.75,0,0],[1,0.25,0],[1,0.5,0],[1,0.75,0],[0.75,1,0],[0.5,1,0],[0.25,1,0],[0,0.75,0],[0,0.5,0],[0,0.25,0]];imageWidth=200;" parent="1" vertex="1">
            <mxGeometry x="2720" y="2215" width="240" height="120" as="geometry" />
          </mxCell>
        </object>
        <mxCell id="XHwyafxk4laVPuKczVM2-9" value="" style="endArrow=classic;html=1;rounded=0;entryX=0.5;entryY=0;entryDx=0;entryDy=0;entryPerimeter=0;exitX=0.5;exitY=1;exitDx=0;exitDy=0;exitPerimeter=0;" parent="1" source="XHwyafxk4laVPuKczVM2-18" target="XHwyafxk4laVPuKczVM2-8" edge="1">
          <mxGeometry width="50" height="50" relative="1" as="geometry">
            <mxPoint x="3120" y="2080" as="sourcePoint" />
            <mxPoint x="2970" y="2470" as="targetPoint" />
          </mxGeometry>
        </mxCell>
        <mxCell id="XHwyafxk4laVPuKczVM2-16" value="" style="endArrow=classic;html=1;rounded=0;exitX=1;exitY=0.5;exitDx=0;exitDy=0;exitPerimeter=0;entryX=0;entryY=0.5;entryDx=0;entryDy=0;entryPerimeter=0;" parent="1" source="XHwyafxk4laVPuKczVM2-8" target="17X11IMV8Jw-dfUq7L3R-1" edge="1">
          <mxGeometry width="50" height="50" relative="1" as="geometry">
            <mxPoint x="3420" y="2560" as="sourcePoint" />
            <mxPoint x="3470" y="2510" as="targetPoint" />
          </mxGeometry>
        </mxCell>
        <object placeholders="1" c4Name="IoT Device Gateway" c4Type="Software System" c4Description="Receives data from physical sensors, forwards to backend/API." label="&lt;font style=&quot;font-size: 16px&quot;&gt;&lt;b&gt;%c4Name%&lt;/b&gt;&lt;/font&gt;&lt;div&gt;[%c4Type%]&lt;/div&gt;&lt;br&gt;&lt;div&gt;&lt;font style=&quot;font-size: 11px&quot;&gt;&lt;font color=&quot;#cccccc&quot;&gt;%c4Description%&lt;/font&gt;&lt;/div&gt;" id="XHwyafxk4laVPuKczVM2-18">
          <mxCell style="rounded=1;whiteSpace=wrap;html=1;labelBackgroundColor=none;fillColor=#a20025;fontColor=#ffffff;align=center;arcSize=0;strokeColor=#6F0000;metaEdit=1;resizable=0;points=[[0.25,0,0],[0.5,0,0],[0.75,0,0],[1,0.25,0],[1,0.5,0],[1,0.75,0],[0.75,1,0],[0.5,1,0],[0.25,1,0],[0,0.75,0],[0,0.5,0],[0,0.25,0]];" parent="1" vertex="1">
            <mxGeometry x="2720" y="2000" width="240" height="120" as="geometry" />
          </mxCell>
        </object>
        <mxCell id="XHwyafxk4laVPuKczVM2-34" value="Stores sensor readings" style="text;html=1;align=center;verticalAlign=middle;whiteSpace=wrap;rounded=0;" parent="1" vertex="1">
          <mxGeometry x="3480" y="2240" width="200" height="30" as="geometry" />
        </mxCell>
        <object placeholders="1" c4Name="DashboardController" c4Type="Component: .NET REST Controller" c4Description="Provides endpoints for the dashboard web application to retrieve sensor data and alerts for display." label="&lt;font style=&quot;font-size: 16px&quot;&gt;&lt;b&gt;%c4Name%&lt;/b&gt;&lt;/font&gt;&lt;div&gt;[%c4Type%]&lt;/div&gt;&lt;br&gt;&lt;div&gt;&lt;font style=&quot;font-size: 11px&quot;&gt;&lt;font color=&quot;#cccccc&quot;&gt;%c4Description%&lt;/font&gt;&lt;/div&gt;" id="2epgCXu1T0L6emjmWnK9-3">
          <mxCell style="rounded=1;whiteSpace=wrap;html=1;labelBackgroundColor=none;fillColor=#1061B0;fontColor=#ffffff;align=center;arcSize=0;strokeColor=#0D5091;metaEdit=1;resizable=0;points=[[0.25,0,0],[0.5,0,0],[0.75,0,0],[1,0.25,0],[1,0.5,0],[1,0.75,0],[0.75,1,0],[0.5,1,0],[0.25,1,0],[0,0.75,0],[0,0.5,0],[0,0.25,0]];imageWidth=200;" parent="1" vertex="1">
            <mxGeometry x="3110" y="2630" width="240" height="120" as="geometry" />
          </mxCell>
        </object>
        <mxCell id="2epgCXu1T0L6emjmWnK9-4" value="&lt;div&gt;&lt;b&gt;&lt;font style=&quot;font-size: 16px;&quot;&gt;&lt;br&gt;&lt;/font&gt;&lt;/b&gt;&lt;/div&gt;&lt;b&gt;&lt;font style=&quot;font-size: 16px;&quot;&gt;&lt;div&gt;&lt;b&gt;&lt;font style=&quot;font-size: 16px;&quot;&gt;&lt;br&gt;&lt;/font&gt;&lt;/b&gt;&lt;/div&gt;Sensor Data Database&lt;/font&gt;&lt;/b&gt;&lt;div&gt;[Container: Azure SQL Database]&lt;/div&gt;&lt;div&gt;&lt;span style=&quot;font-size: 11px;&quot;&gt;Stores sensor readings and related metadata collected from IoT devices.&lt;/span&gt;&lt;/div&gt;" style="strokeWidth=2;html=1;shape=mxgraph.flowchart.database;whiteSpace=wrap;fillColor=#a20025;fontColor=#ffffff;strokeColor=#6F0000;spacing=1;" parent="1" vertex="1">
          <mxGeometry x="3870" y="2210" width="200" height="130" as="geometry" />
        </mxCell>
        <object placeholders="1" c4Name="SensorDataService" c4Type="Component: .NET Service" c4Description="Processes and stores sensor data, passes readings to AlertService." label="&lt;font style=&quot;font-size: 16px&quot;&gt;&lt;b&gt;%c4Name%&lt;/b&gt;&lt;/font&gt;&lt;div&gt;[%c4Type%]&lt;/div&gt;&lt;br&gt;&lt;div&gt;&lt;font style=&quot;font-size: 11px&quot;&gt;&lt;font color=&quot;#cccccc&quot;&gt;%c4Description%&lt;/font&gt;&lt;/div&gt;" id="17X11IMV8Jw-dfUq7L3R-1">
          <mxCell style="rounded=1;whiteSpace=wrap;html=1;labelBackgroundColor=none;fillColor=#1061B0;fontColor=#ffffff;align=center;arcSize=0;strokeColor=#0D5091;metaEdit=1;resizable=0;points=[[0.25,0,0],[0.5,0,0],[0.75,0,0],[1,0.25,0],[1,0.5,0],[1,0.75,0],[0.75,1,0],[0.5,1,0],[0.25,1,0],[0,0.75,0],[0,0.5,0],[0,0.25,0]];imageWidth=200;" vertex="1" parent="1">
            <mxGeometry x="3110" y="2215" width="240" height="120" as="geometry" />
          </mxCell>
        </object>
        <mxCell id="17X11IMV8Jw-dfUq7L3R-4" value="" style="endArrow=classic;html=1;rounded=0;entryX=0;entryY=0.5;entryDx=0;entryDy=0;entryPerimeter=0;exitX=1;exitY=0.5;exitDx=0;exitDy=0;exitPerimeter=0;" edge="1" parent="1" source="17X11IMV8Jw-dfUq7L3R-1" target="2epgCXu1T0L6emjmWnK9-4">
          <mxGeometry width="50" height="50" relative="1" as="geometry">
            <mxPoint x="3230" y="2620" as="sourcePoint" />
            <mxPoint x="3280" y="2570" as="targetPoint" />
          </mxGeometry>
        </mxCell>
        <object placeholders="1" c4Name="AlertService" c4Type="Component: .NET Service" c4Description="Checks sensor readings against thresholds and creates alerts if limits are exceeded." label="&lt;font style=&quot;font-size: 16px&quot;&gt;&lt;b&gt;%c4Name%&lt;/b&gt;&lt;/font&gt;&lt;div&gt;[%c4Type%]&lt;/div&gt;&lt;br&gt;&lt;div&gt;&lt;font style=&quot;font-size: 11px&quot;&gt;&lt;font color=&quot;#cccccc&quot;&gt;%c4Description%&lt;/font&gt;&lt;/div&gt;" id="17X11IMV8Jw-dfUq7L3R-5">
          <mxCell style="rounded=1;whiteSpace=wrap;html=1;labelBackgroundColor=none;fillColor=#1061B0;fontColor=#ffffff;align=center;arcSize=0;strokeColor=#0D5091;metaEdit=1;resizable=0;points=[[0.25,0,0],[0.5,0,0],[0.75,0,0],[1,0.25,0],[1,0.5,0],[1,0.75,0],[0.75,1,0],[0.5,1,0],[0.25,1,0],[0,0.75,0],[0,0.5,0],[0,0.25,0]];imageWidth=200;" vertex="1" parent="1">
            <mxGeometry x="3110" y="2420" width="240" height="120" as="geometry" />
          </mxCell>
        </object>
        <mxCell id="17X11IMV8Jw-dfUq7L3R-6" value="" style="endArrow=classic;html=1;rounded=0;entryX=0.5;entryY=0;entryDx=0;entryDy=0;entryPerimeter=0;exitX=0.5;exitY=1;exitDx=0;exitDy=0;exitPerimeter=0;" edge="1" parent="1" source="17X11IMV8Jw-dfUq7L3R-1" target="17X11IMV8Jw-dfUq7L3R-5">
          <mxGeometry width="50" height="50" relative="1" as="geometry">
            <mxPoint x="3120" y="2600" as="sourcePoint" />
            <mxPoint x="3170" y="2550" as="targetPoint" />
          </mxGeometry>
        </mxCell>
        <object placeholders="1" c4Name="NotificationService" c4Type="Component: .NET Service" c4Description="Prepares and sends notifications to the SMS notification system when an alert is triggered." label="&lt;font style=&quot;font-size: 16px&quot;&gt;&lt;b&gt;%c4Name%&lt;/b&gt;&lt;/font&gt;&lt;div&gt;[%c4Type%]&lt;/div&gt;&lt;br&gt;&lt;div&gt;&lt;font style=&quot;font-size: 11px&quot;&gt;&lt;font color=&quot;#cccccc&quot;&gt;%c4Description%&lt;/font&gt;&lt;/div&gt;" id="17X11IMV8Jw-dfUq7L3R-7">
          <mxCell style="rounded=1;whiteSpace=wrap;html=1;labelBackgroundColor=none;fillColor=#1061B0;fontColor=#ffffff;align=center;arcSize=0;strokeColor=#0D5091;metaEdit=1;resizable=0;points=[[0.25,0,0],[0.5,0,0],[0.75,0,0],[1,0.25,0],[1,0.5,0],[1,0.75,0],[0.75,1,0],[0.5,1,0],[0.25,1,0],[0,0.75,0],[0,0.5,0],[0,0.25,0]];imageWidth=200;" vertex="1" parent="1">
            <mxGeometry x="3440" y="2420" width="240" height="120" as="geometry" />
          </mxCell>
        </object>
        <mxCell id="17X11IMV8Jw-dfUq7L3R-8" value="" style="endArrow=classic;html=1;rounded=0;entryX=0;entryY=0.5;entryDx=0;entryDy=0;entryPerimeter=0;exitX=1;exitY=0.5;exitDx=0;exitDy=0;exitPerimeter=0;" edge="1" parent="1" source="17X11IMV8Jw-dfUq7L3R-5" target="17X11IMV8Jw-dfUq7L3R-7">
          <mxGeometry width="50" height="50" relative="1" as="geometry">
            <mxPoint x="3340" y="2640" as="sourcePoint" />
            <mxPoint x="3390" y="2590" as="targetPoint" />
          </mxGeometry>
        </mxCell>
        <object placeholders="1" c4Name="Dashboard Web App" c4Type="Container: Web Application" c4Description="Provides a user interface for viewing sensor data and alerts in real time." label="&lt;font style=&quot;font-size: 16px&quot;&gt;&lt;b&gt;%c4Name%&lt;/b&gt;&lt;/font&gt;&lt;div&gt;[%c4Type%]&lt;/div&gt;&lt;br&gt;&lt;div&gt;&lt;font style=&quot;font-size: 11px&quot;&gt;&lt;font color=&quot;#cccccc&quot;&gt;%c4Description%&lt;/font&gt;&lt;/div&gt;" id="17X11IMV8Jw-dfUq7L3R-9">
          <mxCell style="rounded=1;whiteSpace=wrap;html=1;labelBackgroundColor=none;fillColor=#a20025;fontColor=#ffffff;align=center;arcSize=0;strokeColor=#6F0000;metaEdit=1;resizable=0;points=[[0.25,0,0],[0.5,0,0],[0.75,0,0],[1,0.25,0],[1,0.5,0],[1,0.75,0],[0.75,1,0],[0.5,1,0],[0.25,1,0],[0,0.75,0],[0,0.5,0],[0,0.25,0]];imageWidth=200;" vertex="1" parent="1">
            <mxGeometry x="3850" y="2630" width="240" height="120" as="geometry" />
          </mxCell>
        </object>
        <mxCell id="17X11IMV8Jw-dfUq7L3R-10" value="" style="endArrow=classic;html=1;rounded=0;entryX=0.003;entryY=0.012;entryDx=0;entryDy=0;entryPerimeter=0;exitX=0.5;exitY=1;exitDx=0;exitDy=0;exitPerimeter=0;" edge="1" parent="1" source="17X11IMV8Jw-dfUq7L3R-7" target="17X11IMV8Jw-dfUq7L3R-9">
          <mxGeometry width="50" height="50" relative="1" as="geometry">
            <mxPoint x="3340" y="2640" as="sourcePoint" />
            <mxPoint x="3390" y="2590" as="targetPoint" />
            <Array as="points">
              <mxPoint x="3560" y="2631" />
            </Array>
          </mxGeometry>
        </mxCell>
        <mxCell id="17X11IMV8Jw-dfUq7L3R-11" value="" style="endArrow=classic;html=1;rounded=0;entryX=0.5;entryY=0;entryDx=0;entryDy=0;entryPerimeter=0;exitX=0.5;exitY=1;exitDx=0;exitDy=0;exitPerimeter=0;" edge="1" parent="1" source="17X11IMV8Jw-dfUq7L3R-5" target="2epgCXu1T0L6emjmWnK9-3">
          <mxGeometry width="50" height="50" relative="1" as="geometry">
            <mxPoint x="3210" y="2610" as="sourcePoint" />
            <mxPoint x="3260" y="2560" as="targetPoint" />
          </mxGeometry>
        </mxCell>
        <object placeholders="1" c4Name="UserService" c4Type="Component: .NET Service" c4Description="Implements business logic for user management, including registration and profile updates." label="&lt;font style=&quot;font-size: 16px&quot;&gt;&lt;b&gt;%c4Name%&lt;/b&gt;&lt;/font&gt;&lt;div&gt;[%c4Type%]&lt;/div&gt;&lt;br&gt;&lt;div&gt;&lt;font style=&quot;font-size: 11px&quot;&gt;&lt;font color=&quot;#cccccc&quot;&gt;%c4Description%&lt;/font&gt;&lt;/div&gt;" id="17X11IMV8Jw-dfUq7L3R-12">
          <mxCell style="rounded=1;whiteSpace=wrap;html=1;labelBackgroundColor=none;fillColor=#1061B0;fontColor=#ffffff;align=center;arcSize=0;strokeColor=#0D5091;metaEdit=1;resizable=0;points=[[0.25,0,0],[0.5,0,0],[0.75,0,0],[1,0.25,0],[1,0.5,0],[1,0.75,0],[0.75,1,0],[0.5,1,0],[0.25,1,0],[0,0.75,0],[0,0.5,0],[0,0.25,0]];imageWidth=200;" vertex="1" parent="1">
            <mxGeometry x="3440" y="2875" width="240" height="120" as="geometry" />
          </mxCell>
        </object>
        <mxCell id="17X11IMV8Jw-dfUq7L3R-13" value="" style="endArrow=classic;html=1;rounded=0;entryX=0;entryY=0.5;entryDx=0;entryDy=0;entryPerimeter=0;exitX=1;exitY=0.5;exitDx=0;exitDy=0;exitPerimeter=0;" edge="1" parent="1" source="2epgCXu1T0L6emjmWnK9-3" target="17X11IMV8Jw-dfUq7L3R-9">
          <mxGeometry width="50" height="50" relative="1" as="geometry">
            <mxPoint x="3210" y="2610" as="sourcePoint" />
            <mxPoint x="3260" y="2560" as="targetPoint" />
          </mxGeometry>
        </mxCell>
        <mxCell id="17X11IMV8Jw-dfUq7L3R-14" value="" style="endArrow=classic;html=1;rounded=0;entryX=0;entryY=0.5;entryDx=0;entryDy=0;entryPerimeter=0;exitX=1;exitY=0.5;exitDx=0;exitDy=0;exitPerimeter=0;" edge="1" parent="1" source="XHwyafxk4laVPuKczVM2-5" target="17X11IMV8Jw-dfUq7L3R-12">
          <mxGeometry width="50" height="50" relative="1" as="geometry">
            <mxPoint x="3270" y="2690" as="sourcePoint" />
            <mxPoint x="3320" y="2640" as="targetPoint" />
          </mxGeometry>
        </mxCell>
        <object placeholders="1" c4Name="SecurityService" c4Type="Component: .NET Service" c4Description="Handles authentication and authorization of users, including credential management." label="&lt;font style=&quot;font-size: 16px&quot;&gt;&lt;b&gt;%c4Name%&lt;/b&gt;&lt;/font&gt;&lt;div&gt;[%c4Type%]&lt;/div&gt;&lt;br&gt;&lt;div&gt;&lt;font style=&quot;font-size: 11px&quot;&gt;&lt;font color=&quot;#cccccc&quot;&gt;%c4Description%&lt;/font&gt;&lt;/div&gt;" id="17X11IMV8Jw-dfUq7L3R-16">
          <mxCell style="rounded=1;whiteSpace=wrap;html=1;labelBackgroundColor=none;fillColor=#1061B0;fontColor=#ffffff;align=center;arcSize=0;strokeColor=#0D5091;metaEdit=1;resizable=0;points=[[0.25,0,0],[0.5,0,0],[0.75,0,0],[1,0.25,0],[1,0.5,0],[1,0.75,0],[0.75,1,0],[0.5,1,0],[0.25,1,0],[0,0.75,0],[0,0.5,0],[0,0.25,0]];imageWidth=200;" vertex="1" parent="1">
            <mxGeometry x="2720" y="3040" width="240" height="120" as="geometry" />
          </mxCell>
        </object>
        <mxCell id="17X11IMV8Jw-dfUq7L3R-18" value="" style="endArrow=classic;html=1;rounded=0;entryX=0;entryY=0.5;entryDx=0;entryDy=0;entryPerimeter=0;exitX=1;exitY=0.5;exitDx=0;exitDy=0;exitPerimeter=0;" edge="1" parent="1" source="17X11IMV8Jw-dfUq7L3R-12" target="XHwyafxk4laVPuKczVM2-3">
          <mxGeometry width="50" height="50" relative="1" as="geometry">
            <mxPoint x="3310" y="2770" as="sourcePoint" />
            <mxPoint x="3360" y="2720" as="targetPoint" />
          </mxGeometry>
        </mxCell>
        <mxCell id="17X11IMV8Jw-dfUq7L3R-19" value="Sends SMS alert" style="endArrow=classic;html=1;rounded=0;entryX=0.5;entryY=1;entryDx=0;entryDy=0;entryPerimeter=0;exitX=1;exitY=0.5;exitDx=0;exitDy=0;exitPerimeter=0;" edge="1" parent="1" source="17X11IMV8Jw-dfUq7L3R-16" target="XHwyafxk4laVPuKczVM2-3">
          <mxGeometry x="1" y="570" width="50" height="50" relative="1" as="geometry">
            <mxPoint x="3310" y="2770" as="sourcePoint" />
            <mxPoint x="3360" y="2720" as="targetPoint" />
            <Array as="points">
              <mxPoint x="3970" y="3100" />
            </Array>
            <mxPoint x="360" y="-530" as="offset" />
          </mxGeometry>
        </mxCell>
        <mxCell id="17X11IMV8Jw-dfUq7L3R-20" value="" style="endArrow=classic;html=1;rounded=0;entryX=0.5;entryY=0;entryDx=0;entryDy=0;entryPerimeter=0;exitX=0.5;exitY=1;exitDx=0;exitDy=0;exitPerimeter=0;" edge="1" parent="1" source="XHwyafxk4laVPuKczVM2-5" target="17X11IMV8Jw-dfUq7L3R-16">
          <mxGeometry width="50" height="50" relative="1" as="geometry">
            <mxPoint x="3250" y="2610" as="sourcePoint" />
            <mxPoint x="3300" y="2560" as="targetPoint" />
          </mxGeometry>
        </mxCell>
        <mxCell id="17X11IMV8Jw-dfUq7L3R-22" value="Sends sensor data via HTTP/API" style="text;whiteSpace=wrap;" vertex="1" parent="1">
          <mxGeometry x="2735" y="2140" width="210" height="40" as="geometry" />
        </mxCell>
        <mxCell id="17X11IMV8Jw-dfUq7L3R-23" value="Passes received sensor data for processing and storage" style="text;whiteSpace=wrap;" vertex="1" parent="1">
          <mxGeometry x="2930" y="2190" width="330" height="40" as="geometry" />
        </mxCell>
        <mxCell id="17X11IMV8Jw-dfUq7L3R-25" value="Forwards sensor data for threshold checking" style="text;whiteSpace=wrap;" vertex="1" parent="1">
          <mxGeometry x="3100" y="2360" width="270" height="40" as="geometry" />
        </mxCell>
        <mxCell id="17X11IMV8Jw-dfUq7L3R-26" value="Triggers notification if threshold exceeded" style="text;whiteSpace=wrap;" vertex="1" parent="1">
          <mxGeometry x="3320" y="2390" width="260" height="40" as="geometry" />
        </mxCell>
        <mxCell id="17X11IMV8Jw-dfUq7L3R-28" value="" style="endArrow=classic;html=1;rounded=0;entryX=0;entryY=0.5;entryDx=0;entryDy=0;entryPerimeter=0;exitX=1;exitY=0.5;exitDx=0;exitDy=0;exitPerimeter=0;" edge="1" parent="1" source="17X11IMV8Jw-dfUq7L3R-7" target="drQIs82g9xxdgHSHIDGh-26">
          <mxGeometry width="50" height="50" relative="1" as="geometry">
            <mxPoint x="3430" y="2580" as="sourcePoint" />
            <mxPoint x="3480" y="2530" as="targetPoint" />
          </mxGeometry>
        </mxCell>
        <mxCell id="17X11IMV8Jw-dfUq7L3R-35" value="Serves sensor and alert data via REST API" style="text;whiteSpace=wrap;" vertex="1" parent="1">
          <mxGeometry x="3430" y="2660" width="260" height="40" as="geometry" />
        </mxCell>
        <mxCell id="17X11IMV8Jw-dfUq7L3R-37" value="Delegates user registration, sign-in, and management requests" style="text;whiteSpace=wrap;" vertex="1" parent="1">
          <mxGeometry x="3030" y="2900" width="370" height="40" as="geometry" />
        </mxCell>
        <mxCell id="17X11IMV8Jw-dfUq7L3R-38" value="Handles authentication and authorization" style="text;whiteSpace=wrap;" vertex="1" parent="1">
          <mxGeometry x="2715" y="3000" width="250" height="40" as="geometry" />
        </mxCell>
        <mxCell id="17X11IMV8Jw-dfUq7L3R-39" value="Reads/writes user profile data" style="text;whiteSpace=wrap;" vertex="1" parent="1">
          <mxGeometry x="3690" y="2910" width="190" height="40" as="geometry" />
        </mxCell>
        <mxCell id="17X11IMV8Jw-dfUq7L3R-40" value="Reads/writes authentication credentials" style="text;whiteSpace=wrap;" vertex="1" parent="1">
          <mxGeometry x="3030" y="3070" width="240" height="40" as="geometry" />
        </mxCell>
        <mxCell id="17X11IMV8Jw-dfUq7L3R-42" value="" style="endArrow=classic;html=1;rounded=0;entryX=0.5;entryY=0;entryDx=0;entryDy=0;entryPerimeter=0;exitX=0.5;exitY=1;exitDx=0;exitDy=0;exitPerimeter=0;" edge="1" parent="1" source="2epgCXu1T0L6emjmWnK9-3" target="17X11IMV8Jw-dfUq7L3R-12">
          <mxGeometry width="50" height="50" relative="1" as="geometry">
            <mxPoint x="3450" y="2660" as="sourcePoint" />
            <mxPoint x="3500" y="2610" as="targetPoint" />
            <Array as="points">
              <mxPoint x="3230" y="2840" />
              <mxPoint x="3560" y="2840" />
            </Array>
          </mxGeometry>
        </mxCell>
        <mxCell id="17X11IMV8Jw-dfUq7L3R-43" value="" style="endArrow=classic;html=1;rounded=0;entryX=1;entryY=0.5;entryDx=0;entryDy=0;entryPerimeter=0;exitX=0.5;exitY=1;exitDx=0;exitDy=0;exitPerimeter=0;" edge="1" parent="1" source="2epgCXu1T0L6emjmWnK9-3" target="2epgCXu1T0L6emjmWnK9-4">
          <mxGeometry width="50" height="50" relative="1" as="geometry">
            <mxPoint x="3450" y="2660" as="sourcePoint" />
            <mxPoint x="3500" y="2610" as="targetPoint" />
            <Array as="points">
              <mxPoint x="3230" y="2790" />
              <mxPoint x="4200" y="2790" />
              <mxPoint x="4200" y="2275" />
            </Array>
          </mxGeometry>
        </mxCell>
        <mxCell id="17X11IMV8Jw-dfUq7L3R-44" value="Reads sensor data for dashboard display" style="text;whiteSpace=wrap;" vertex="1" parent="1">
          <mxGeometry x="3430" y="2760" width="250" height="40" as="geometry" />
        </mxCell>
        <mxCell id="17X11IMV8Jw-dfUq7L3R-47" value="Reads user info for personalization and authorization" style="text;whiteSpace=wrap;" vertex="1" parent="1">
          <mxGeometry x="3250" y="2810" width="310" height="40" as="geometry" />
        </mxCell>
      </root>
    </mxGraphModel>
  </diagram>
</mxfile>
